<?xml version="1.0" encoding="UTF-8"?>
<svg id="Capa_2" data-name="Capa 2" xmlns="http://www.w3.org/2000/svg" viewBox="0 0 32 32">
  <defs>
    <style>
      .cls-1 {
        fill: #009191;
      }

      .cls-2 {
        fill: #caaa5f;
      }
    </style>
  </defs>
  <g id="Capa_1-2" data-name="Capa 1">
    <g>
      <rect class="cls-1" width="32" height="32"/>
      <path class="cls-2" d="M14.02,20.61c2.67,1.81,5.91-.62,5.3-3.64-.75-3.27-4.29-5.68-3.87-9.25.05-.17.17-.32.33-.4.28-.15.65-.09.86.13.09.09.16.2.2.32,1.62,6.6,4.92,4.22,3.94,6.51-.41,1.23.29,2.6,1.51,3.05.21.09.43.24.5.47.15.48-.32.73-.7.89-1.25.56-1.74,2.05-1.19,3.27.03.1.06.2.07.29.03.38-.2.7-.63.66-.21-.02-.42-.12-.62-.18-1.25-.43-2.65.27-3.11,1.51-.05.1-.11.2-.18.29-.4.45-.88.16-1.08-.32-.48-1.25-1.9-1.94-3.18-1.43-.14.05-.29.12-.43.13-.23.02-.52-.05-.65-.26-.13-.2-.07-.45,0-.68.39-1.12.21-2.49-.86-3.12-.25-.16-.54-.25-.78-.43-.15-.11-.26-.28-.26-.46,0-.17.09-.33.22-.44.33-.26.75-.37,1.07-.65.84-.7,1.03-1.93.6-2.92-.24-.59.12-1.12.77-.9.17.06.33.14.49.22.59.3,1.24.53,1.89.65,5.84.43,5.73,6.06,1.92,6.18-.8.04-1.93-.86-1.65-1.69.25-.63.94-.43,1.48-.5.59-.1.74-.61.39-1.08-2.44-2.5-5.28,2.04-2.2,3.86"/>
    </g>
  </g>
</svg>