<?xml version="1.0" encoding="UTF-8"?>
<svg id="Capa_2" data-name="Capa 2" xmlns="http://www.w3.org/2000/svg" viewBox="0 0 16 16">
  <defs>
    <style>
      .cls-1 {
        fill: #009191;
      }

      .cls-2 {
        fill: #caaa5f;
      }
    </style>
  </defs>
  <g id="Capa_1-2" data-name="Capa 1">
    <g>
      <rect class="cls-1" width="16" height="16"/>
      <path class="cls-2" d="M7.01,10.31c1.34.9,2.95-.31,2.65-1.82-.38-1.63-2.15-2.84-1.94-4.62.02-.09.08-.16.17-.2.14-.07.32-.05.43.06.05.04.08.1.1.16.81,3.3,2.46,2.11,1.97,3.25-.2.61.14,1.3.76,1.53.11.05.21.12.25.23.08.24-.16.37-.35.44-.63.28-.87,1.02-.59,1.64.02.05.03.1.03.15.02.19-.1.35-.31.33-.11,0-.21-.06-.31-.09-.62-.22-1.33.14-1.55.76-.03.05-.05.1-.09.14-.2.22-.44.08-.54-.16-.24-.62-.95-.97-1.59-.72-.07.03-.14.06-.21.07-.11.01-.26-.02-.33-.13-.07-.1-.03-.23,0-.34.19-.56.1-1.25-.43-1.56-.13-.08-.27-.13-.39-.21-.08-.05-.13-.14-.13-.23,0-.09.05-.17.11-.22.16-.13.38-.18.53-.33.42-.35.51-.97.3-1.46-.12-.29.06-.56.38-.45.09.03.16.07.24.11.3.15.62.27.95.32,2.92.21,2.86,3.03.96,3.09-.4.02-.96-.43-.83-.84.13-.32.47-.22.74-.25.29-.05.37-.31.19-.54-1.22-1.25-2.64,1.02-1.1,1.93"/>
    </g>
  </g>
</svg>