<?xml version="1.0" encoding="UTF-8"?>
<svg id="Capa_2" data-name="Capa 2" xmlns="http://www.w3.org/2000/svg" viewBox="0 0 96 96">
  <defs>
    <style>
      .cls-1 {
        fill: #009191;
      }

      .cls-2 {
        fill: #caaa5f;
      }
    </style>
  </defs>
  <g id="Capa_1-2" data-name="Capa 1">
    <rect class="cls-1" width="96" height="96"/>
    <path class="cls-2" d="M42.06,61.83c8.01,5.43,17.73-1.85,15.9-10.91-2.26-9.8-12.88-17.05-11.61-27.74.15-.52.5-.96,1-1.21.83-.44,1.94-.27,2.57.38.27.27.47.61.61.97,4.85,19.8,14.77,12.67,11.81,19.53-1.22,3.68.86,7.81,4.53,9.16.64.28,1.29.71,1.5,1.4.45,1.45-.97,2.2-2.09,2.67-3.76,1.68-5.22,6.15-3.56,9.82.1.29.18.59.2.88.09,1.15-.6,2.11-1.88,1.98-.64-.05-1.26-.35-1.85-.55-3.75-1.3-7.96.82-9.33,4.54-.15.31-.32.61-.55.86-1.2,1.35-2.64.49-3.23-.96-1.45-3.74-5.69-5.81-9.54-4.3-.42.16-.86.36-1.29.4-.68.07-1.56-.14-1.96-.77-.39-.6-.2-1.36-.01-2.04,1.16-3.35.62-7.48-2.59-9.35-.76-.47-1.63-.76-2.35-1.28-.45-.33-.79-.83-.78-1.39,0-.52.27-1,.67-1.33.98-.77,2.26-1.1,3.2-1.95,2.53-2.09,3.08-5.8,1.79-8.76-.72-1.76.37-3.37,2.31-2.71.51.17.99.43,1.46.67,1.78.91,3.71,1.6,5.68,1.95,17.53,1.28,17.18,18.19,5.77,18.54-2.4.11-5.78-2.58-4.96-5.06.76-1.9,2.81-1.3,4.44-1.5,1.76-.29,2.22-1.83,1.17-3.25-7.32-7.5-15.84,6.12-6.6,11.59"/>
  </g>
</svg>