<?xml version="1.0" encoding="UTF-8"?>
<svg id="Capa_2" data-name="Capa 2" xmlns="http://www.w3.org/2000/svg" viewBox="0 0 192 192">
  <defs>
    <style>
      .cls-1 {
        fill: #009191;
      }

      .cls-2 {
        fill: #caaa5f;
      }
    </style>
  </defs>
  <g id="Capa_1-2" data-name="Capa 1">
    <g>
      <rect class="cls-1" width="192" height="192"/>
      <path class="cls-2" d="M84.13,123.66c16.03,10.85,35.46-3.69,31.81-21.83-4.51-19.6-25.76-34.11-23.22-55.48.3-1.04,1-1.91,2-2.42,1.66-.88,3.88-.55,5.13.76.55.53.95,1.23,1.21,1.95,9.71,39.61,29.53,25.35,23.62,39.06-2.44,7.36,1.72,15.61,9.06,18.32,1.29.56,2.57,1.41,3,2.8.91,2.9-1.93,4.4-4.19,5.34-7.52,3.36-10.43,12.3-7.12,19.64.2.59.36,1.19.4,1.75.19,2.31-1.21,4.23-3.76,3.97-1.27-.1-2.51-.69-3.71-1.1-7.49-2.59-15.93,1.65-18.66,9.07-.3.63-.64,1.21-1.11,1.73-2.4,2.69-5.28.97-6.45-1.92-2.91-7.48-11.37-11.62-19.08-8.6-.84.32-1.72.72-2.57.81-1.37.15-3.12-.28-3.93-1.54-.78-1.2-.4-2.72-.02-4.09,2.33-6.69,1.24-14.96-5.18-18.69-1.51-.93-3.26-1.52-4.7-2.56-.91-.66-1.57-1.65-1.57-2.79-.01-1.05.54-1.99,1.35-2.66,1.97-1.55,4.52-2.2,6.39-3.9,5.07-4.17,6.15-11.59,3.58-17.52-1.44-3.51.73-6.75,4.61-5.41,1.02.34,1.97.85,2.93,1.34,3.55,1.82,7.42,3.21,11.35,3.9,35.06,2.56,34.35,36.38,11.55,37.09-4.81.21-11.57-5.16-9.92-10.11,1.52-3.8,5.61-2.59,8.88-3,3.53-.59,4.45-3.67,2.33-6.5-14.63-15.01-31.68,12.24-13.2,23.17"/>
    </g>
  </g>
</svg>